<svg width="168" height="50" viewBox="0 0 168 50" fill="none" xmlns="http://www.w3.org/2000/svg">
<path d="M1.55225 1.40845H50.4478V45C50.4478 47.7614 48.2092 50 45.4478 50H6.55225C3.79082 50 1.55225 47.7614 1.55225 45V1.40845Z" fill="#CE4F4F"/>
<path d="M0 5C0 2.23858 2.23858 0 5 0H47C49.7614 0 52 2.23858 52 5V11.2676H0V5Z" fill="#A3A3A3"/>
<path d="M10.8828 39.6192C10.9453 39.5723 11.0469 39.4942 11.1875 39.3848C11.3125 39.2754 11.4688 39.0723 11.6563 38.7754C11.8281 38.4785 12.0234 38.0489 12.2422 37.4864C12.4609 36.9239 12.6875 36.1582 12.9219 35.1895C13.0469 34.6739 13.2109 34.0176 13.4141 33.2207C13.6172 32.4239 13.8359 31.5723 14.0703 30.666C14.3203 29.7598 14.5703 28.8301 14.8203 27.877C15.0703 26.9082 15.3125 25.9942 15.5469 25.1348C15.7813 24.2598 15.9922 23.4707 16.1797 22.7676C16.3672 22.0645 16.5156 21.5176 16.625 21.127C16.3281 21.3145 16.0391 21.5254 15.7578 21.7598C15.5078 21.9629 15.2422 22.1973 14.9609 22.4629C14.6797 22.7129 14.4063 22.9785 14.1406 23.2598C13.9375 23.0879 13.7813 22.9004 13.6719 22.6973C13.6094 22.6035 13.5547 22.502 13.5078 22.3926C13.4141 22.1582 13.3672 21.916 13.3672 21.666C13.3672 21.416 13.5625 21.1582 13.9531 20.8926C14.1563 20.752 14.4609 20.5489 14.8672 20.2832C15.2891 20.0176 15.8047 19.7598 16.4141 19.5098C17.0234 19.2442 17.7344 19.0176 18.5469 18.8301C19.3594 18.6426 20.2578 18.5489 21.2422 18.5489C22.2266 18.5489 23.0156 18.7442 23.6094 19.1348C24.2188 19.5254 24.6797 20.002 24.9922 20.5645C25.3203 21.127 25.5313 21.7207 25.625 22.3457C25.7188 22.9707 25.7422 23.5176 25.6953 23.9864C25.6016 24.8614 25.3203 25.7754 24.8516 26.7285C24.3828 27.6817 23.7344 28.5645 22.9063 29.377C22.0781 30.1739 21.0703 30.8535 19.8828 31.416C18.6953 31.9785 17.3359 32.2989 15.8047 32.377C15.6797 32.9707 15.5547 33.5801 15.4297 34.2051C15.3047 34.8301 15.1719 35.4473 15.0313 36.0567C14.8906 36.6504 14.7422 37.2051 14.5859 37.7207C14.4453 38.252 14.2969 38.7051 14.1406 39.0801C13.9844 39.4864 13.7813 39.8067 13.5313 40.041C13.2813 40.291 12.8828 40.416 12.3359 40.416C12.0547 40.416 11.7969 40.3457 11.5625 40.2051C11.3125 40.0645 11.0859 39.8692 10.8828 39.6192ZM16.4375 28.9317C16.3906 29.1817 16.3281 29.5098 16.25 29.916C16.1875 30.3067 16.1094 30.752 16.0156 31.252C16.4375 31.1895 16.9063 31.0801 17.4219 30.9239C17.9375 30.752 18.4531 30.5254 18.9688 30.2442C19.4844 29.9629 19.9844 29.627 20.4688 29.2364C20.9688 28.8301 21.4219 28.3692 21.8281 27.8535C22.2344 27.3223 22.5703 26.7285 22.8359 26.0723C23.1172 25.4004 23.2969 24.6582 23.375 23.8457C23.4531 23.0645 23.4063 22.416 23.2344 21.9004C23.0781 21.3692 22.8438 20.9473 22.5313 20.6348C22.2188 20.3067 21.8594 20.0801 21.4531 19.9551C21.0469 19.8145 20.6406 19.7442 20.2344 19.7442C19.8438 19.7442 19.4609 19.7989 19.0859 19.9082C18.7109 20.0176 18.3359 20.1582 17.9609 20.3301C18.0078 20.3457 18.0625 20.3848 18.125 20.4473C18.2188 20.541 18.2891 20.6739 18.3359 20.8457C17.9609 22.3614 17.6484 23.627 17.3984 24.6426C17.1641 25.6582 16.9766 26.4864 16.8359 27.127C16.6641 27.877 16.5313 28.4785 16.4375 28.9317ZM37.8828 34.0645C37.7891 35.1114 37.4766 36.0489 36.9453 36.877C36.4141 37.7051 35.7344 38.4004 34.9063 38.9629C34.0938 39.541 33.1719 39.9785 32.1406 40.2754C31.1094 40.5723 30.0469 40.7207 28.9531 40.7207C28.5469 40.7207 28.1641 40.6895 27.8047 40.627C27.4609 40.5801 27.1484 40.5176 26.8672 40.4395C26.5859 40.3614 26.3438 40.2832 26.1406 40.2051C25.9531 40.1426 25.8203 40.0879 25.7422 40.041C25.6016 39.9629 25.4844 39.8614 25.3906 39.7364C25.3125 39.627 25.2656 39.4629 25.25 39.2442C25.2344 39.1192 25.2266 39.0176 25.2266 38.9395C25.2266 38.877 25.2344 38.8067 25.25 38.7285C25.2656 38.6504 25.2969 38.541 25.3438 38.4004C25.375 38.2754 25.4219 38.0957 25.4844 37.8614C25.5156 37.7207 25.6328 37.2754 25.8359 36.5254C26.0547 35.791 26.3125 34.8926 26.6094 33.8301C26.9063 32.752 27.2266 31.5879 27.5703 30.3379C27.9297 29.0879 28.2734 27.877 28.6016 26.7051C28.9297 25.5332 29.2266 24.4785 29.4922 23.541C29.7578 22.5879 29.9531 21.8848 30.0781 21.4317C29.8594 21.5879 29.6406 21.752 29.4219 21.9239C29.2188 22.0957 29.0078 22.2832 28.7891 22.4864C28.5547 22.7051 28.3203 22.7832 28.0859 22.7207C27.8672 22.6426 27.7109 22.4473 27.6172 22.1348C27.5859 21.9785 27.5625 21.8145 27.5469 21.6426C27.5313 21.502 27.5313 21.3457 27.5469 21.1739C27.5781 20.9864 27.6406 20.8067 27.7344 20.6348C28.25 20.3223 28.75 20.0567 29.2344 19.8379C29.7344 19.6192 30.2109 19.4239 30.6641 19.252C30.7578 18.9864 30.8594 18.7832 30.9688 18.6426C31.0938 18.502 31.2188 18.4082 31.3438 18.3614C31.4688 18.3145 31.6016 18.2989 31.7422 18.3145C31.8828 18.3301 32.0313 18.3535 32.1875 18.3848C32.5313 18.4629 32.7578 18.5723 32.8672 18.7129C33.0859 18.6817 33.2969 18.6582 33.5 18.6426C33.7031 18.627 33.9141 18.6192 34.1328 18.6192C35.0391 18.6192 35.8281 18.7364 36.5 18.9707C37.1719 19.2051 37.7188 19.5254 38.1406 19.9317C38.5781 20.3223 38.8906 20.7832 39.0781 21.3145C39.2656 21.8457 39.3359 22.4082 39.2891 23.002C39.2422 23.5176 39.1016 24.0567 38.8672 24.6192C38.6484 25.166 38.3516 25.7129 37.9766 26.2598C37.6016 26.791 37.1641 27.3145 36.6641 27.8301C36.1641 28.3301 35.6094 28.791 35 29.2129C35.4844 29.4942 35.9141 29.8223 36.2891 30.1973C36.6641 30.5723 36.9766 30.9785 37.2266 31.416C37.4766 31.8535 37.6563 32.2989 37.7656 32.752C37.875 33.2051 37.9141 33.6426 37.8828 34.0645ZM30.125 28.3223C30.0938 28.4785 30.0547 28.6348 30.0078 28.791C29.9766 28.9473 29.9375 29.1114 29.8906 29.2832C30.0781 29.0801 30.3906 28.8926 30.8281 28.7207C31.2813 28.5489 31.7109 28.4629 32.1172 28.4629C32.3359 28.4629 32.5469 28.4785 32.75 28.5098C32.9531 28.5254 33.1484 28.5489 33.3359 28.5801C33.7734 28.2989 34.1953 27.9395 34.6016 27.502C35.0078 27.0489 35.3594 26.5723 35.6563 26.0723C35.9688 25.5567 36.2188 25.0332 36.4063 24.502C36.6094 23.9707 36.7344 23.4785 36.7813 23.0254C36.875 21.9473 36.6875 21.1504 36.2188 20.6348C35.7656 20.1035 35.1172 19.8379 34.2734 19.8379C33.7109 19.8379 33.125 19.9395 32.5156 20.1426C32.3906 20.5489 32.2344 21.0567 32.0469 21.666C31.8594 22.2598 31.6563 22.916 31.4375 23.6348C31.2344 24.3535 31.0156 25.1114 30.7813 25.9082C30.5469 26.7051 30.3281 27.5098 30.125 28.3223ZM29.7266 29.8692C29.5078 30.7129 29.2891 31.627 29.0703 32.6114C28.8672 33.4551 28.6484 34.4395 28.4141 35.5645C28.1797 36.6739 27.9297 37.8614 27.6641 39.127C27.7578 39.2051 27.8828 39.2598 28.0391 39.291C28.1953 39.3223 28.3516 39.3535 28.5078 39.3848C28.6797 39.416 28.8672 39.4317 29.0703 39.4317C29.7734 39.4317 30.4844 39.2832 31.2031 38.9864C31.9375 38.7051 32.6094 38.2989 33.2188 37.7676C33.8281 37.2364 34.3359 36.5957 34.7422 35.8457C35.1641 35.0801 35.4141 34.2285 35.4922 33.291C35.5234 32.8692 35.4922 32.4942 35.3984 32.166C35.3203 31.8223 35.1953 31.5176 35.0234 31.252C34.8672 30.9707 34.6797 30.7285 34.4609 30.5254C34.2578 30.3067 34.0391 30.1192 33.8047 29.9629C33.0859 30.3535 32.2969 30.6817 31.4375 30.9473C31.1563 31.0254 30.9141 31.041 30.7109 30.9942C30.5078 30.9317 30.3359 30.8457 30.1953 30.7364C30.0547 30.6114 29.9453 30.4707 29.8672 30.3145C29.7891 30.1582 29.7422 30.0098 29.7266 29.8692Z" fill="white"/>
<path d="M73.2705 13.8945C73.2705 14.0703 73.2021 14.2852 73.0654 14.5391C72.9482 14.7734 72.7822 14.998 72.5674 15.2129C72.3721 15.4082 72.1475 15.584 71.8936 15.7402C71.6592 15.877 71.415 15.9453 71.1611 15.9453C70.9463 15.9453 70.751 15.8379 70.5752 15.623C70.3994 15.4082 70.3213 15.1152 70.3408 14.7441C70.3408 14.4902 70.4092 14.2266 70.5459 13.9531C70.7021 13.6602 70.8877 13.3965 71.1025 13.1621C71.3369 12.9277 71.5811 12.7422 71.835 12.6055C72.1084 12.4492 72.3623 12.3711 72.5967 12.3711C72.9287 12.3711 73.124 12.5273 73.1826 12.8398C73.2607 13.1523 73.29 13.5039 73.2705 13.8945ZM63.0166 45.3008C62.4893 45.3008 62.0303 45.1543 61.6396 44.8613C61.249 44.5684 60.9365 44.1973 60.7021 43.748C60.4482 43.2988 60.2627 42.8105 60.1455 42.2832C60.0283 41.7559 59.9795 41.2578 59.999 40.7891C60.0186 40.3789 60.1748 39.8516 60.4678 39.207C60.7412 38.5625 61.1318 37.8691 61.6396 37.127C62.1475 36.4043 62.7627 35.6621 63.4854 34.9004C64.208 34.1582 65.0088 33.4941 65.8877 32.9082C66.0049 32.3027 66.1318 31.6875 66.2686 31.0625C66.3857 30.418 66.5029 29.8027 66.6201 29.2168C66.7373 28.6113 66.8545 28.0449 66.9717 27.5176C67.1084 26.9707 67.2354 26.4922 67.3525 26.082C67.4893 25.5547 67.6357 24.998 67.792 24.4121C67.9287 23.9043 68.085 23.3477 68.2607 22.7422C68.4365 22.1172 68.6221 21.4922 68.8174 20.8672C69.0127 20.7695 69.1982 20.7012 69.374 20.6621C69.5498 20.623 69.7061 20.5938 69.8428 20.5742C69.999 20.5547 70.1455 20.5547 70.2822 20.5742C70.4189 20.5938 70.5557 20.6328 70.6924 20.6914C70.9463 20.7891 71.1709 20.9648 71.3662 21.2188C71.0342 22.2734 70.751 23.1719 70.5166 23.9141C70.3018 24.6562 70.1162 25.2715 69.96 25.7598C69.7842 26.3262 69.6475 26.8047 69.5498 27.1953C69.374 27.7422 69.2178 28.3672 69.0811 29.0703C68.9443 29.7539 68.7881 30.4961 68.6123 31.2969C69.4326 30.7891 70.2529 30.1934 71.0732 29.5098C71.9131 28.8262 72.6748 28.1621 73.3584 27.5176C74.0615 26.8535 74.6475 26.2773 75.1162 25.7891C75.6045 25.2812 75.9072 24.959 76.0244 24.8223C76.1611 24.666 76.2979 24.5879 76.4346 24.5879C76.5713 24.5684 76.6787 24.6074 76.7568 24.7051C76.8545 24.8027 76.8936 24.9492 76.874 25.1445C76.874 25.3203 76.7861 25.5254 76.6104 25.7598C76.3369 26.1504 75.9268 26.6484 75.3799 27.2539C74.833 27.8398 74.208 28.4648 73.5049 29.1289C72.8018 29.7734 72.04 30.4277 71.2197 31.0918C70.4189 31.7363 69.6182 32.293 68.8174 32.7617C68.6416 32.8594 68.4463 32.9863 68.2314 33.1426C67.958 34.2949 67.6943 35.4277 67.4404 36.541C67.1865 37.6543 66.9033 38.6895 66.5908 39.6465C66.2979 40.584 66.0342 41.4043 65.7998 42.1074C65.5654 42.8301 65.3213 43.4258 65.0674 43.8945C64.8135 44.3633 64.5303 44.7148 64.2178 44.9492C63.8857 45.1836 63.4854 45.3008 63.0166 45.3008ZM61.9619 41.6094C61.9229 42.293 61.9717 42.8008 62.1084 43.1328C62.2451 43.4844 62.4307 43.6602 62.665 43.6602C62.8213 43.6602 62.9971 43.4941 63.1924 43.1621C63.3682 42.8301 63.5439 42.4102 63.7197 41.9023C63.876 41.3945 64.042 40.8379 64.2178 40.2324C64.374 39.6465 64.5205 39.0898 64.6572 38.5625C64.7744 38.0352 64.8721 37.5859 64.9502 37.2148C65.0283 36.8438 65.0771 36.6289 65.0967 36.5703C65.1357 36.4141 65.1748 36.248 65.2139 36.0723C65.2529 35.8965 65.292 35.7012 65.3311 35.4863C64.8818 35.9551 64.4619 36.4336 64.0713 36.9219C63.6611 37.4297 63.3096 37.9473 63.0166 38.4746C62.7041 39.002 62.46 39.5293 62.2842 40.0566C62.0889 40.584 61.9814 41.1016 61.9619 41.6094ZM89.3545 26.1699C89.0811 26.5605 88.7295 27.0488 88.2998 27.6348C87.8701 28.2012 87.4209 28.7773 86.9521 29.3633C86.5029 29.9297 86.0537 30.457 85.6045 30.9453C85.1748 31.4141 84.8135 31.7461 84.5205 31.9414C84.3252 32.0586 84.1006 32.1562 83.8467 32.2344C83.5928 32.3125 83.3291 32.3613 83.0557 32.3809C82.8018 32.4004 82.5576 32.3809 82.3232 32.3223C82.0889 32.2832 81.8838 32.2051 81.708 32.0879C81.5322 31.9512 81.3857 31.7559 81.2686 31.502C81.1709 31.2871 81.0732 31.0039 80.9756 30.6523C80.8975 30.3008 80.8682 29.8613 80.8877 29.334C80.4189 30.1152 79.9014 30.7207 79.335 31.1504C78.7686 31.5605 78.2314 31.8633 77.7236 32.0586C77.1377 32.2734 76.5518 32.4004 75.9658 32.4395C75.6924 32.4395 75.3994 32.3418 75.0869 32.1465C74.7744 31.9707 74.5107 31.6875 74.2959 31.2969C74.0811 30.8867 73.9443 30.3691 73.8857 29.7441C73.8271 29.0996 73.9053 28.3379 74.1201 27.459C74.3936 26.2676 74.8232 25.1836 75.4092 24.207C76.0146 23.2305 76.6689 22.4004 77.3721 21.7168C78.0752 21.0137 78.7686 20.4863 79.4521 20.1348C80.1357 19.7832 80.7021 19.627 81.1514 19.666C81.6787 19.7637 82.1084 19.9199 82.4404 20.1348C82.7139 20.3301 82.8896 20.623 82.9678 21.0137C83.0654 21.3848 82.9092 21.8828 82.499 22.5078C82.7725 22.4492 82.9971 22.4102 83.1729 22.3906C83.3682 22.3711 83.5146 22.3613 83.6123 22.3613C83.7295 22.3613 83.8076 22.3711 83.8467 22.3906C83.8662 22.4297 83.876 22.5176 83.876 22.6543C83.876 22.7715 83.8467 22.9961 83.7881 23.3281C83.7295 23.6602 83.6416 24.1094 83.5244 24.6758C83.4072 25.2422 83.251 25.9746 83.0557 26.873C83.0166 27.0488 82.9775 27.2148 82.9385 27.3711C82.9189 27.5078 82.8896 27.6543 82.8506 27.8105C82.8311 27.9473 82.8018 28.1133 82.7627 28.3086C82.7236 28.5039 82.6748 28.748 82.6162 29.041C82.5967 29.2168 82.5869 29.4121 82.5869 29.627C82.6064 29.8223 82.6455 30.0078 82.7041 30.1836C82.7627 30.3594 82.8506 30.5059 82.9678 30.623C83.1045 30.7207 83.29 30.7695 83.5244 30.7695C83.7197 30.7695 83.9736 30.6523 84.2861 30.418C84.5986 30.1641 84.9307 29.8516 85.2822 29.4805C85.6338 29.0898 85.9951 28.6699 86.3662 28.2207C86.7568 27.752 87.1182 27.3027 87.4502 26.873C87.7822 26.4434 88.0752 26.0625 88.3291 25.7305C88.6025 25.3984 88.7979 25.1543 88.915 24.998C89.0713 24.8223 89.2275 24.7246 89.3838 24.7051C89.54 24.666 89.6572 24.7051 89.7354 24.8223C89.8135 24.9395 89.8232 25.1152 89.7646 25.3496C89.7256 25.584 89.5889 25.8574 89.3545 26.1699ZM80.7705 27.459C80.8682 27.0684 80.9854 26.6094 81.1221 26.082C81.2588 25.5547 81.376 25.0469 81.4736 24.5586C81.5713 24.0703 81.6396 23.6699 81.6787 23.3574C81.7373 23.0254 81.7275 22.8691 81.6494 22.8887C81.5518 22.9082 81.4443 22.9375 81.3271 22.9766C81.2295 23.0156 81.1025 23.0449 80.9463 23.0645C80.79 23.084 80.6338 23.1133 80.4775 23.1523C80.6338 22.8398 80.7217 22.5859 80.7412 22.3906C80.7803 22.1758 80.79 22.0098 80.7705 21.8926C80.751 21.7559 80.7119 21.6484 80.6533 21.5703C80.4385 21.3945 80.0576 21.541 79.5107 22.0098C78.9834 22.459 78.3682 23.2988 77.665 24.5293C77.3721 25.0371 77.1377 25.584 76.9619 26.1699C76.7861 26.7363 76.6592 27.2734 76.5811 27.7812C76.5225 28.2891 76.5127 28.7383 76.5518 29.1289C76.5908 29.5 76.6689 29.7441 76.7861 29.8613C77.001 30.0762 77.2451 30.1836 77.5186 30.1836C77.792 30.1641 78.0654 30.0859 78.3389 29.9492C78.6318 29.793 78.915 29.5977 79.1885 29.3633C79.4814 29.1289 79.7354 28.8848 79.9502 28.6309C80.1846 28.377 80.3701 28.1426 80.5068 27.9277C80.6631 27.7129 80.751 27.5566 80.7705 27.459ZM101.044 30.6523C101.044 30.2422 101.083 29.7734 101.161 29.2461C101.259 28.7188 101.376 28.1816 101.513 27.6348C101.649 27.0684 101.786 26.5215 101.923 25.9941C102.06 25.4668 102.177 24.998 102.274 24.5879C102.392 24.0801 102.382 23.6895 102.245 23.416C102.108 23.1426 101.874 23.0059 101.542 23.0059C101.386 23.0059 101.073 23.1426 100.604 23.416C100.155 23.6895 99.6572 24.168 99.1104 24.8516C98.583 25.5156 98.0557 26.4238 97.5283 27.5762C97.0205 28.709 96.6201 30.1543 96.3271 31.9121C95.9561 32.1074 95.6045 32.2344 95.2725 32.293C95.0967 32.332 94.9404 32.3613 94.8037 32.3809C94.4131 32.4004 94.1592 32.332 94.042 32.1758C93.9248 32.0391 93.9443 31.6875 94.1006 31.1211C94.1787 30.8477 94.3154 30.4082 94.5107 29.8027C94.7256 29.1973 94.9307 28.543 95.126 27.8398C95.3213 27.1172 95.4873 26.4043 95.624 25.7012C95.7803 24.9785 95.8584 24.3535 95.8584 23.8262C95.8584 23.4551 95.79 23.2012 95.6533 23.0645C95.5361 22.9277 95.3604 22.8594 95.126 22.8594C94.9502 22.8594 94.6572 22.957 94.2471 23.1523C93.8369 23.3477 93.3779 23.7285 92.8701 24.2949C92.3623 24.8613 91.8545 25.6523 91.3467 26.668C90.8584 27.6641 90.4385 28.9629 90.0869 30.5645V30.5059C90.0479 30.6621 90.0088 30.8184 89.9697 30.9746C89.9307 31.1113 89.9014 31.2578 89.8818 31.4141C89.8623 31.5703 89.833 31.7168 89.7939 31.8535L88.3291 32.498C88.2314 32.5371 88.1045 32.5664 87.9482 32.5859C87.8115 32.6055 87.6748 32.5762 87.5381 32.498C87.4209 32.4395 87.333 32.3027 87.2744 32.0879C87.2158 31.873 87.2354 31.5508 87.333 31.1211L89.1787 23.4746C89.2373 23.2207 89.2861 22.9766 89.3252 22.7422C89.3643 22.5273 89.3838 22.3223 89.3838 22.127C89.4033 21.9121 89.3936 21.7363 89.3545 21.5996C89.6865 21.4434 89.9795 21.3262 90.2334 21.248C90.4873 21.1699 90.6924 21.1113 90.8486 21.0723C91.0439 21.0137 91.21 20.9844 91.3467 20.9844C91.9717 20.9844 92.1768 21.5215 91.9619 22.5957C91.8838 22.9082 91.7666 23.3672 91.6104 23.9727C91.9814 23.5039 92.3721 23.0645 92.7822 22.6543C93.2119 22.2246 93.6416 21.8438 94.0713 21.5117C94.501 21.1797 94.9307 20.916 95.3604 20.7207C95.8096 20.5254 96.249 20.4277 96.6787 20.4277C97.0107 20.4277 97.2842 20.5254 97.499 20.7207C97.7334 20.916 97.9092 21.1797 98.0264 21.5117C98.1631 21.8242 98.2412 22.2051 98.2607 22.6543C98.2803 23.084 98.2607 23.5332 98.2021 24.002C98.5146 23.5918 98.8564 23.1816 99.2275 22.7715C99.6182 22.3418 100.019 21.9609 100.429 21.6289C100.858 21.2969 101.298 21.0234 101.747 20.8086C102.196 20.5938 102.646 20.4863 103.095 20.4863C103.622 20.4863 104.022 20.6426 104.296 20.9551C104.589 21.2676 104.784 21.668 104.882 22.1562C104.999 22.6445 105.028 23.1719 104.97 23.7383C104.931 24.3047 104.853 24.8516 104.735 25.3789L103.739 29.334C103.524 30.3105 103.729 30.7988 104.354 30.7988C104.843 30.7988 105.38 30.5645 105.966 30.0957C106.552 29.627 107.118 29.0703 107.665 28.4258C108.231 27.7812 108.759 27.1172 109.247 26.4336C109.735 25.75 110.146 25.2031 110.478 24.793C110.595 24.6562 110.712 24.5781 110.829 24.5586C110.966 24.5391 111.073 24.5684 111.151 24.6465C111.249 24.7051 111.298 24.8125 111.298 24.9688C111.317 25.125 111.269 25.3203 111.151 25.5547C110.761 26.2383 110.282 27 109.716 27.8398C109.149 28.6602 108.524 29.4316 107.841 30.1543C107.177 30.877 106.464 31.4824 105.702 31.9707C104.94 32.459 104.149 32.7031 103.329 32.7031C103.056 32.7031 102.782 32.6738 102.509 32.6152C102.255 32.5566 102.011 32.4492 101.776 32.293C101.562 32.1367 101.386 31.9316 101.249 31.6777C101.112 31.4043 101.044 31.0625 101.044 30.6523ZM113.056 31.0039C113.173 31.082 113.319 31.1211 113.495 31.1211C113.69 31.1211 113.876 31.082 114.052 31.0039C114.247 30.9258 114.423 30.8184 114.579 30.6816C114.755 30.5449 114.882 30.3691 114.96 30.1543C115.038 29.9395 115.038 29.6367 114.96 29.2461C114.882 28.8359 114.755 28.4062 114.579 27.957C114.423 27.4883 114.247 27.0195 114.052 26.5508C113.856 26.082 113.69 25.6523 113.554 25.2617C113.437 24.9688 113.339 24.6953 113.261 24.4414C113.183 24.2266 113.104 24.0215 113.026 23.8262C112.968 23.6113 112.919 23.4648 112.88 23.3867C112.782 23.543 112.606 23.7969 112.353 24.1484C112.118 24.5 111.854 24.8711 111.562 25.2617C111.288 25.6328 111.024 25.9844 110.771 26.3164C110.517 26.6289 110.341 26.8438 110.243 26.9609C110.087 27.1367 109.931 27.2441 109.774 27.2832C109.638 27.3027 109.521 27.2734 109.423 27.1953C109.325 27.0977 109.267 26.9707 109.247 26.8145C109.247 26.6387 109.325 26.4336 109.481 26.1992C109.599 26.043 109.774 25.7988 110.009 25.4668C110.243 25.1152 110.478 24.7637 110.712 24.4121C110.946 24.041 111.161 23.7188 111.356 23.4453C111.552 23.1523 111.659 22.9766 111.679 22.918C111.718 22.7617 111.659 22.5566 111.503 22.3027C111.366 22.0488 111.347 21.7559 111.444 21.4238C111.522 21.1504 111.698 20.8379 111.972 20.4863C112.245 20.1152 112.567 19.7832 112.938 19.4902C113.31 19.1973 113.69 18.9824 114.081 18.8457C114.472 18.6895 114.823 18.6895 115.136 18.8457C115.39 19.002 115.595 19.1777 115.751 19.373C115.907 19.5488 115.966 19.7344 115.927 19.9297C115.888 20.0273 115.829 20.1543 115.751 20.3105C115.673 20.4668 115.556 20.6621 115.399 20.8965C115.243 21.1113 115.019 21.3945 114.726 21.7461C114.784 22.1953 114.862 22.6055 114.96 22.9766C115.077 23.3477 115.185 23.6699 115.282 23.9434C115.399 24.2754 115.526 24.5781 115.663 24.8516C115.839 25.2031 116.024 25.5645 116.22 25.9355C116.415 26.3066 116.591 26.6777 116.747 27.0488C116.903 27.4004 117.03 27.7324 117.128 28.0449C117.226 28.3574 117.255 28.6211 117.216 28.8359C117.157 29.168 116.981 29.5684 116.688 30.0371C116.415 30.5059 116.063 30.9648 115.634 31.4141C115.224 31.8438 114.745 32.2148 114.198 32.5273C113.671 32.8398 113.114 32.9961 112.528 32.9961C112.118 32.9961 111.718 32.8691 111.327 32.6152C110.956 32.3613 110.634 32.0684 110.36 31.7363C110.106 31.3848 109.911 31.043 109.774 30.7109C109.657 30.3789 109.647 30.125 109.745 29.9492C109.862 29.7148 109.97 29.5293 110.067 29.3926C110.165 29.2559 110.312 29.0996 110.507 28.9238C110.585 28.8652 110.683 28.7969 110.8 28.7188C110.897 28.6602 111.034 28.6016 111.21 28.543C111.386 28.4844 111.591 28.416 111.825 28.3379C112.021 28.9434 112.196 29.4219 112.353 29.7734C112.509 30.1055 112.636 30.3691 112.733 30.5645C112.851 30.7793 112.958 30.9258 113.056 31.0039ZM130.282 24.5879C130.36 24.4707 130.458 24.4023 130.575 24.3828C130.712 24.3438 130.819 24.3535 130.897 24.4121C130.976 24.4707 131.015 24.5684 131.015 24.7051C131.034 24.8418 130.985 25.0273 130.868 25.2617C130.478 26.0039 129.96 26.8047 129.315 27.6641C128.69 28.5234 128.026 29.334 127.323 30.0957C126.62 30.8379 125.937 31.4531 125.272 31.9414C124.608 32.4297 124.052 32.6738 123.603 32.6738C122.958 32.6738 122.421 32.5469 121.991 32.293C121.562 32.0391 121.22 31.7266 120.966 31.3555C120.731 30.9844 120.565 30.584 120.468 30.1543C120.37 29.7051 120.341 29.2949 120.38 28.9238C120.399 28.6113 120.468 28.0547 120.585 27.2539C120.702 26.4336 120.858 25.4961 121.054 24.4414C121.249 23.3672 121.464 22.2246 121.698 21.0137C121.952 19.7832 122.216 18.6016 122.489 17.4688C122.157 17.5078 121.825 17.5469 121.493 17.5859C121.161 17.625 120.858 17.6445 120.585 17.6445C119.96 17.6445 119.374 17.5762 118.827 17.4395C118.261 17.2832 117.841 17.1367 117.567 17C117.411 16.9219 117.343 16.8145 117.362 16.6777C117.382 16.5215 117.44 16.375 117.538 16.2383C117.636 16.082 117.763 15.9551 117.919 15.8574C118.056 15.7402 118.183 15.6816 118.3 15.6816C118.671 15.7207 119.071 15.7598 119.501 15.7988C119.931 15.8184 120.399 15.8184 120.907 15.7988C121.278 15.7793 121.63 15.75 121.962 15.7109C122.313 15.6719 122.655 15.623 122.987 15.5645C123.241 14.627 123.485 13.8164 123.72 13.1328C123.974 12.4297 124.198 11.9414 124.394 11.668C124.452 11.5703 124.579 11.4922 124.774 11.4336C124.989 11.3555 125.214 11.3066 125.448 11.2871C125.683 11.248 125.907 11.248 126.122 11.2871C126.337 11.3066 126.493 11.375 126.591 11.4922C126.688 11.6484 126.728 12.0488 126.708 12.6934C126.688 13.3379 126.581 14.1582 126.386 15.1543C127.206 15.1543 127.929 15.2031 128.554 15.3008C129.198 15.3789 129.745 15.4766 130.194 15.5938C130.644 15.6914 131.005 15.7988 131.278 15.916C131.552 16.0137 131.757 16.082 131.894 16.1211C132.03 16.1602 132.099 16.2578 132.099 16.4141C132.118 16.5703 132.089 16.7363 132.011 16.9121C131.952 17.0684 131.845 17.2051 131.688 17.3223C131.532 17.4395 131.356 17.4785 131.161 17.4395C130.966 17.4199 130.741 17.3809 130.487 17.3223C130.253 17.2637 129.96 17.2148 129.608 17.1758C129.276 17.1367 128.876 17.0977 128.407 17.0586C127.938 17.0195 127.392 17 126.767 17C126.649 17 126.513 17.0098 126.356 17.0293C126.22 17.0293 126.073 17.0293 125.917 17.0293C125.839 17.3418 125.761 17.6543 125.683 17.9668C125.624 18.2598 125.536 18.5723 125.419 18.9043C125.165 19.6855 124.872 20.5352 124.54 21.4531C124.247 22.2539 123.896 23.1719 123.485 24.207C123.075 25.2422 122.616 26.3457 122.108 27.5176C121.991 28.3574 122.001 29.002 122.138 29.4512C122.294 29.8809 122.479 30.1934 122.694 30.3887C122.948 30.6035 123.261 30.7207 123.632 30.7402C123.925 30.7793 124.276 30.6816 124.687 30.4473C125.116 30.1934 125.556 29.8613 126.005 29.4512C126.454 29.041 126.903 28.5918 127.353 28.1035C127.821 27.6152 128.251 27.1367 128.642 26.668C129.032 26.1992 129.374 25.7793 129.667 25.4082C129.96 25.0176 130.165 24.7441 130.282 24.5879ZM143.554 26.1699C143.28 26.5605 142.929 27.0488 142.499 27.6348C142.069 28.2012 141.62 28.7773 141.151 29.3633C140.702 29.9297 140.253 30.457 139.804 30.9453C139.374 31.4141 139.013 31.7461 138.72 31.9414C138.524 32.0586 138.3 32.1562 138.046 32.2344C137.792 32.3125 137.528 32.3613 137.255 32.3809C137.001 32.4004 136.757 32.3809 136.522 32.3223C136.288 32.2832 136.083 32.2051 135.907 32.0879C135.731 31.9512 135.585 31.7559 135.468 31.502C135.37 31.2871 135.272 31.0039 135.175 30.6523C135.097 30.3008 135.067 29.8613 135.087 29.334C134.618 30.1152 134.101 30.7207 133.534 31.1504C132.968 31.5605 132.431 31.8633 131.923 32.0586C131.337 32.2734 130.751 32.4004 130.165 32.4395C129.892 32.4395 129.599 32.3418 129.286 32.1465C128.974 31.9707 128.71 31.6875 128.495 31.2969C128.28 30.8867 128.144 30.3691 128.085 29.7441C128.026 29.0996 128.104 28.3379 128.319 27.459C128.593 26.2676 129.022 25.1836 129.608 24.207C130.214 23.2305 130.868 22.4004 131.571 21.7168C132.274 21.0137 132.968 20.4863 133.651 20.1348C134.335 19.7832 134.901 19.627 135.351 19.666C135.878 19.7637 136.308 19.9199 136.64 20.1348C136.913 20.3301 137.089 20.623 137.167 21.0137C137.265 21.3848 137.108 21.8828 136.698 22.5078C136.972 22.4492 137.196 22.4102 137.372 22.3906C137.567 22.3711 137.714 22.3613 137.812 22.3613C137.929 22.3613 138.007 22.3711 138.046 22.3906C138.065 22.4297 138.075 22.5176 138.075 22.6543C138.075 22.7715 138.046 22.9961 137.987 23.3281C137.929 23.6602 137.841 24.1094 137.724 24.6758C137.606 25.2422 137.45 25.9746 137.255 26.873C137.216 27.0488 137.177 27.2148 137.138 27.3711C137.118 27.5078 137.089 27.6543 137.05 27.8105C137.03 27.9473 137.001 28.1133 136.962 28.3086C136.923 28.5039 136.874 28.748 136.815 29.041C136.796 29.2168 136.786 29.4121 136.786 29.627C136.806 29.8223 136.845 30.0078 136.903 30.1836C136.962 30.3594 137.05 30.5059 137.167 30.623C137.304 30.7207 137.489 30.7695 137.724 30.7695C137.919 30.7695 138.173 30.6523 138.485 30.418C138.798 30.1641 139.13 29.8516 139.481 29.4805C139.833 29.0898 140.194 28.6699 140.565 28.2207C140.956 27.752 141.317 27.3027 141.649 26.873C141.981 26.4434 142.274 26.0625 142.528 25.7305C142.802 25.3984 142.997 25.1543 143.114 24.998C143.271 24.8223 143.427 24.7246 143.583 24.7051C143.739 24.666 143.856 24.7051 143.935 24.8223C144.013 24.9395 144.022 25.1152 143.964 25.3496C143.925 25.584 143.788 25.8574 143.554 26.1699ZM134.97 27.459C135.067 27.0684 135.185 26.6094 135.321 26.082C135.458 25.5547 135.575 25.0469 135.673 24.5586C135.771 24.0703 135.839 23.6699 135.878 23.3574C135.937 23.0254 135.927 22.8691 135.849 22.8887C135.751 22.9082 135.644 22.9375 135.526 22.9766C135.429 23.0156 135.302 23.0449 135.146 23.0645C134.989 23.084 134.833 23.1133 134.677 23.1523C134.833 22.8398 134.921 22.5859 134.94 22.3906C134.979 22.1758 134.989 22.0098 134.97 21.8926C134.95 21.7559 134.911 21.6484 134.853 21.5703C134.638 21.3945 134.257 21.541 133.71 22.0098C133.183 22.459 132.567 23.2988 131.864 24.5293C131.571 25.0371 131.337 25.584 131.161 26.1699C130.985 26.7363 130.858 27.2734 130.78 27.7812C130.722 28.2891 130.712 28.7383 130.751 29.1289C130.79 29.5 130.868 29.7441 130.985 29.8613C131.2 30.0762 131.444 30.1836 131.718 30.1836C131.991 30.1641 132.265 30.0859 132.538 29.9492C132.831 29.793 133.114 29.5977 133.388 29.3633C133.681 29.1289 133.935 28.8848 134.149 28.6309C134.384 28.377 134.569 28.1426 134.706 27.9277C134.862 27.7129 134.95 27.5566 134.97 27.459ZM146.571 31.0039C147.177 31.0039 147.841 30.7695 148.563 30.3008C149.306 29.8125 150.019 29.2461 150.702 28.6016C151.405 27.957 152.04 27.3027 152.606 26.6387C153.192 25.9551 153.632 25.4082 153.925 24.998C154.101 24.7441 154.267 24.5977 154.423 24.5586C154.579 24.5 154.696 24.5195 154.774 24.6172C154.853 24.7148 154.882 24.8711 154.862 25.0859C154.843 25.2812 154.755 25.5059 154.599 25.7598C154.462 25.9941 154.228 26.3359 153.896 26.7852C153.583 27.2148 153.202 27.6934 152.753 28.2207C152.323 28.7285 151.825 29.2559 151.259 29.8027C150.712 30.3301 150.136 30.8184 149.53 31.2676C148.925 31.6973 148.3 32.0488 147.655 32.3223C147.011 32.6152 146.376 32.7617 145.751 32.7617C144.892 32.7617 144.169 32.5957 143.583 32.2637C143.017 31.9512 142.558 31.541 142.206 31.0332C141.874 30.5254 141.64 29.9688 141.503 29.3633C141.366 28.7383 141.298 28.123 141.298 27.5176C141.298 26.9121 141.435 26.1602 141.708 25.2617C141.981 24.3633 142.382 23.5039 142.909 22.6836C143.456 21.8438 144.14 21.1309 144.96 20.5449C145.78 19.9395 146.747 19.6367 147.86 19.6367C148.485 19.6367 149.013 19.8516 149.442 20.2812C149.892 20.7109 150.106 21.2969 150.087 22.0391C150.087 22.3906 150.028 22.7422 149.911 23.0938C149.794 23.4258 149.638 23.7285 149.442 24.002C149.247 24.2559 149.013 24.4609 148.739 24.6172C148.485 24.7734 148.202 24.8516 147.89 24.8516C147.636 24.8516 147.44 24.7637 147.304 24.5879C147.187 24.3926 147.108 24.1777 147.069 23.9434C147.05 23.6895 147.05 23.4453 147.069 23.2109C147.108 22.9766 147.147 22.8203 147.187 22.7422C147.284 22.6055 147.392 22.5078 147.509 22.4492C147.626 22.3906 147.763 22.3223 147.919 22.2441C148.036 22.1855 148.124 22.0977 148.183 21.9805C148.261 21.8633 148.3 21.7363 148.3 21.5996C148.3 21.4629 148.261 21.3457 148.183 21.248C148.104 21.1504 147.978 21.1016 147.802 21.1016C147.626 21.1016 147.304 21.248 146.835 21.541C146.386 21.8145 145.917 22.2344 145.429 22.8008C144.96 23.3477 144.54 24.041 144.169 24.8809C143.798 25.7207 143.603 26.6973 143.583 27.8105C143.563 28.4551 143.651 28.9824 143.847 29.3926C144.042 29.8027 144.286 30.125 144.579 30.3594C144.872 30.5938 145.194 30.7598 145.546 30.8574C145.897 30.9551 146.239 31.0039 146.571 31.0039ZM167.519 26.1699C167.069 26.9121 166.552 27.6836 165.966 28.4844C165.399 29.2656 164.794 29.9883 164.149 30.6523C163.505 31.2969 162.841 31.834 162.157 32.2637C161.474 32.6934 160.79 32.9082 160.106 32.9082C159.423 32.9082 158.925 32.6738 158.612 32.2051C158.319 31.7559 158.183 31.248 158.202 30.6816C158.202 30.4277 158.222 30.2031 158.261 30.0078C158.319 29.8125 158.378 29.6367 158.437 29.4805C158.495 29.3242 158.554 29.168 158.612 29.0117C158.69 28.8359 158.759 28.6406 158.817 28.4258C158.896 28.1719 158.896 27.9473 158.817 27.752C158.759 27.5371 158.681 27.3516 158.583 27.1953C158.407 27.3906 158.202 27.5664 157.968 27.7227C157.753 27.8594 157.479 27.9277 157.147 27.9277C156.913 27.9277 156.698 27.8203 156.503 27.6055C156.308 27.3711 156.21 27.0879 156.21 26.7559C156.21 26.4824 156.269 26.2578 156.386 26.082C156.522 25.9062 156.669 25.7695 156.825 25.6719C157.001 25.5742 157.177 25.5059 157.353 25.4668C157.528 25.4277 157.675 25.4082 157.792 25.4082C157.851 25.4082 157.968 25.418 158.144 25.4375C158.339 25.457 158.544 25.4863 158.759 25.5254C159.462 24.959 159.96 24.4512 160.253 24.002C160.565 23.5332 160.595 23.1133 160.341 22.7422C160.185 22.4883 159.989 22.3613 159.755 22.3613C159.521 22.3418 159.276 22.4004 159.022 22.5371C158.769 22.6543 158.515 22.8105 158.261 23.0059C158.026 23.2012 157.812 23.3867 157.616 23.5625C157.226 23.9531 156.786 24.4219 156.298 24.9688C155.829 25.4961 155.438 25.9355 155.126 26.2871C154.989 26.873 154.853 27.4883 154.716 28.1328C154.599 28.6992 154.462 29.3438 154.306 30.0664C154.169 30.7695 154.022 31.502 153.866 32.2637C153.749 32.3223 153.622 32.3613 153.485 32.3809C153.368 32.4199 153.261 32.4492 153.163 32.4688C153.046 32.4883 152.929 32.498 152.812 32.498C152.655 32.498 152.509 32.4883 152.372 32.4688C152.235 32.4688 152.128 32.4199 152.05 32.3223C151.952 32.2441 151.903 32.1074 151.903 31.9121C151.884 31.7168 151.933 31.4434 152.05 31.0918C152.206 30.584 152.401 29.9102 152.636 29.0703C152.87 28.2109 153.114 27.2734 153.368 26.2578C153.622 25.2422 153.876 24.1875 154.13 23.0938C154.403 21.9805 154.657 20.9258 154.892 19.9297C155.126 18.9141 155.321 18.0059 155.478 17.2051C155.653 16.3848 155.78 15.7402 155.858 15.2715C155.917 14.7637 155.976 14.2754 156.034 13.8066C156.073 13.416 156.093 13.0352 156.093 12.6641C156.112 12.2734 156.093 11.9805 156.034 11.7852C156.132 11.6875 156.269 11.5996 156.444 11.5215C156.62 11.4434 156.815 11.3848 157.03 11.3457C157.245 11.2871 157.499 11.2383 157.792 11.1992C158.124 11.1602 158.397 11.1504 158.612 11.1699C158.847 11.1895 159.013 11.2871 159.11 11.4629C159.228 11.6582 159.247 11.9902 159.169 12.459C159.11 12.9082 158.974 13.543 158.759 14.3633C158.485 15.418 158.202 16.3848 157.909 17.2637C157.636 18.123 157.362 18.9336 157.089 19.6953C156.835 20.457 156.581 21.1992 156.327 21.9219C156.093 22.625 155.878 23.3477 155.683 24.0898C156.073 23.5234 156.562 22.9277 157.147 22.3027C157.733 21.6582 158.397 21.1309 159.14 20.7207C159.921 20.3105 160.565 20.1055 161.073 20.1055C161.698 20.1055 162.147 20.3203 162.421 20.75C162.694 21.1602 162.821 21.6484 162.802 22.2148C162.782 22.6641 162.665 23.084 162.45 23.4746C162.255 23.8457 162.011 24.1973 161.718 24.5293C161.425 24.8418 161.112 25.1152 160.78 25.3496C160.448 25.584 160.165 25.7793 159.931 25.9355C160.204 26.0918 160.438 26.3066 160.634 26.5801C160.849 26.834 160.946 27.1562 160.927 27.5469C160.907 28.0742 160.8 28.543 160.604 28.9531C160.429 29.3438 160.341 29.7051 160.341 30.0371C160.36 30.291 160.409 30.4766 160.487 30.5938C160.585 30.7109 160.78 30.7695 161.073 30.7695C161.601 30.7695 162.147 30.5449 162.714 30.0957C163.3 29.6465 163.847 29.1289 164.354 28.543C164.862 27.957 165.331 27.3809 165.761 26.8145C166.19 26.2285 166.522 25.7988 166.757 25.5254C167.089 25.1738 167.362 25.0859 167.577 25.2617C167.812 25.418 167.792 25.7207 167.519 26.1699Z" fill="black"/>
</svg>
