<svg width="52" height="50" viewBox="0 0 52 50" fill="none" xmlns="http://www.w3.org/2000/svg">
<path d="M1.55224 1.40845H50.4478V45C50.4478 47.7614 48.2092 50 45.4478 50H6.55224C3.79082 50 1.55224 47.7614 1.55224 45V1.40845Z" fill="#CE4F4F"/>
<path d="M0 5C0 2.23858 2.23858 0 5 0H47C49.7614 0 52 2.23858 52 5V11.2676H0V5Z" fill="#A3A3A3"/>
<path d="M10.8828 39.6192C10.9453 39.5723 11.0469 39.4942 11.1875 39.3848C11.3125 39.2754 11.4688 39.0723 11.6562 38.7754C11.8281 38.4785 12.0234 38.0489 12.2422 37.4864C12.4609 36.9239 12.6875 36.1582 12.9219 35.1895C13.0469 34.6739 13.2109 34.0176 13.4141 33.2207C13.6172 32.4239 13.8359 31.5723 14.0703 30.666C14.3203 29.7598 14.5703 28.8301 14.8203 27.877C15.0703 26.9082 15.3125 25.9942 15.5469 25.1348C15.7812 24.2598 15.9922 23.4707 16.1797 22.7676C16.3672 22.0645 16.5156 21.5176 16.625 21.127C16.3281 21.3145 16.0391 21.5254 15.7578 21.7598C15.5078 21.9629 15.2422 22.1973 14.9609 22.4629C14.6797 22.7129 14.4062 22.9785 14.1406 23.2598C13.9375 23.0879 13.7812 22.9004 13.6719 22.6973C13.6094 22.6035 13.5547 22.502 13.5078 22.3926C13.4141 22.1582 13.3672 21.916 13.3672 21.666C13.3672 21.416 13.5625 21.1582 13.9531 20.8926C14.1562 20.752 14.4609 20.5489 14.8672 20.2832C15.2891 20.0176 15.8047 19.7598 16.4141 19.5098C17.0234 19.2442 17.7344 19.0176 18.5469 18.8301C19.3594 18.6426 20.2578 18.5489 21.2422 18.5489C22.2266 18.5489 23.0156 18.7442 23.6094 19.1348C24.2188 19.5254 24.6797 20.002 24.9922 20.5645C25.3203 21.127 25.5312 21.7207 25.625 22.3457C25.7188 22.9707 25.7422 23.5176 25.6953 23.9864C25.6016 24.8614 25.3203 25.7754 24.8516 26.7285C24.3828 27.6817 23.7344 28.5645 22.9062 29.377C22.0781 30.1739 21.0703 30.8535 19.8828 31.416C18.6953 31.9785 17.3359 32.2989 15.8047 32.377C15.6797 32.9707 15.5547 33.5801 15.4297 34.2051C15.3047 34.8301 15.1719 35.4473 15.0312 36.0567C14.8906 36.6504 14.7422 37.2051 14.5859 37.7207C14.4453 38.252 14.2969 38.7051 14.1406 39.0801C13.9844 39.4864 13.7812 39.8067 13.5312 40.041C13.2812 40.291 12.8828 40.416 12.3359 40.416C12.0547 40.416 11.7969 40.3457 11.5625 40.2051C11.3125 40.0645 11.0859 39.8692 10.8828 39.6192ZM16.4375 28.9317C16.3906 29.1817 16.3281 29.5098 16.25 29.916C16.1875 30.3067 16.1094 30.752 16.0156 31.252C16.4375 31.1895 16.9062 31.0801 17.4219 30.9239C17.9375 30.752 18.4531 30.5254 18.9688 30.2442C19.4844 29.9629 19.9844 29.627 20.4688 29.2364C20.9688 28.8301 21.4219 28.3692 21.8281 27.8535C22.2344 27.3223 22.5703 26.7285 22.8359 26.0723C23.1172 25.4004 23.2969 24.6582 23.375 23.8457C23.4531 23.0645 23.4062 22.416 23.2344 21.9004C23.0781 21.3692 22.8438 20.9473 22.5312 20.6348C22.2188 20.3067 21.8594 20.0801 21.4531 19.9551C21.0469 19.8145 20.6406 19.7442 20.2344 19.7442C19.8438 19.7442 19.4609 19.7989 19.0859 19.9082C18.7109 20.0176 18.3359 20.1582 17.9609 20.3301C18.0078 20.3457 18.0625 20.3848 18.125 20.4473C18.2188 20.541 18.2891 20.6739 18.3359 20.8457C17.9609 22.3614 17.6484 23.627 17.3984 24.6426C17.1641 25.6582 16.9766 26.4864 16.8359 27.127C16.6641 27.877 16.5312 28.4785 16.4375 28.9317ZM37.8828 34.0645C37.7891 35.1114 37.4766 36.0489 36.9453 36.877C36.4141 37.7051 35.7344 38.4004 34.9062 38.9629C34.0938 39.541 33.1719 39.9785 32.1406 40.2754C31.1094 40.5723 30.0469 40.7207 28.9531 40.7207C28.5469 40.7207 28.1641 40.6895 27.8047 40.627C27.4609 40.5801 27.1484 40.5176 26.8672 40.4395C26.5859 40.3614 26.3438 40.2832 26.1406 40.2051C25.9531 40.1426 25.8203 40.0879 25.7422 40.041C25.6016 39.9629 25.4844 39.8614 25.3906 39.7364C25.3125 39.627 25.2656 39.4629 25.25 39.2442C25.2344 39.1192 25.2266 39.0176 25.2266 38.9395C25.2266 38.877 25.2344 38.8067 25.25 38.7285C25.2656 38.6504 25.2969 38.541 25.3438 38.4004C25.375 38.2754 25.4219 38.0957 25.4844 37.8614C25.5156 37.7207 25.6328 37.2754 25.8359 36.5254C26.0547 35.791 26.3125 34.8926 26.6094 33.8301C26.9062 32.752 27.2266 31.5879 27.5703 30.3379C27.9297 29.0879 28.2734 27.877 28.6016 26.7051C28.9297 25.5332 29.2266 24.4785 29.4922 23.541C29.7578 22.5879 29.9531 21.8848 30.0781 21.4317C29.8594 21.5879 29.6406 21.752 29.4219 21.9239C29.2188 22.0957 29.0078 22.2832 28.7891 22.4864C28.5547 22.7051 28.3203 22.7832 28.0859 22.7207C27.8672 22.6426 27.7109 22.4473 27.6172 22.1348C27.5859 21.9785 27.5625 21.8145 27.5469 21.6426C27.5312 21.502 27.5312 21.3457 27.5469 21.1739C27.5781 20.9864 27.6406 20.8067 27.7344 20.6348C28.25 20.3223 28.75 20.0567 29.2344 19.8379C29.7344 19.6192 30.2109 19.4239 30.6641 19.252C30.7578 18.9864 30.8594 18.7832 30.9688 18.6426C31.0938 18.502 31.2188 18.4082 31.3438 18.3614C31.4688 18.3145 31.6016 18.2989 31.7422 18.3145C31.8828 18.3301 32.0312 18.3535 32.1875 18.3848C32.5312 18.4629 32.7578 18.5723 32.8672 18.7129C33.0859 18.6817 33.2969 18.6582 33.5 18.6426C33.7031 18.627 33.9141 18.6192 34.1328 18.6192C35.0391 18.6192 35.8281 18.7364 36.5 18.9707C37.1719 19.2051 37.7188 19.5254 38.1406 19.9317C38.5781 20.3223 38.8906 20.7832 39.0781 21.3145C39.2656 21.8457 39.3359 22.4082 39.2891 23.002C39.2422 23.5176 39.1016 24.0567 38.8672 24.6192C38.6484 25.166 38.3516 25.7129 37.9766 26.2598C37.6016 26.791 37.1641 27.3145 36.6641 27.8301C36.1641 28.3301 35.6094 28.791 35 29.2129C35.4844 29.4942 35.9141 29.8223 36.2891 30.1973C36.6641 30.5723 36.9766 30.9785 37.2266 31.416C37.4766 31.8535 37.6562 32.2989 37.7656 32.752C37.875 33.2051 37.9141 33.6426 37.8828 34.0645ZM30.125 28.3223C30.0938 28.4785 30.0547 28.6348 30.0078 28.791C29.9766 28.9473 29.9375 29.1114 29.8906 29.2832C30.0781 29.0801 30.3906 28.8926 30.8281 28.7207C31.2812 28.5489 31.7109 28.4629 32.1172 28.4629C32.3359 28.4629 32.5469 28.4785 32.75 28.5098C32.9531 28.5254 33.1484 28.5489 33.3359 28.5801C33.7734 28.2989 34.1953 27.9395 34.6016 27.502C35.0078 27.0489 35.3594 26.5723 35.6562 26.0723C35.9688 25.5567 36.2188 25.0332 36.4062 24.502C36.6094 23.9707 36.7344 23.4785 36.7812 23.0254C36.875 21.9473 36.6875 21.1504 36.2188 20.6348C35.7656 20.1035 35.1172 19.8379 34.2734 19.8379C33.7109 19.8379 33.125 19.9395 32.5156 20.1426C32.3906 20.5489 32.2344 21.0567 32.0469 21.666C31.8594 22.2598 31.6562 22.916 31.4375 23.6348C31.2344 24.3535 31.0156 25.1114 30.7812 25.9082C30.5469 26.7051 30.3281 27.5098 30.125 28.3223ZM29.7266 29.8692C29.5078 30.7129 29.2891 31.627 29.0703 32.6114C28.8672 33.4551 28.6484 34.4395 28.4141 35.5645C28.1797 36.6739 27.9297 37.8614 27.6641 39.127C27.7578 39.2051 27.8828 39.2598 28.0391 39.291C28.1953 39.3223 28.3516 39.3535 28.5078 39.3848C28.6797 39.416 28.8672 39.4317 29.0703 39.4317C29.7734 39.4317 30.4844 39.2832 31.2031 38.9864C31.9375 38.7051 32.6094 38.2989 33.2188 37.7676C33.8281 37.2364 34.3359 36.5957 34.7422 35.8457C35.1641 35.0801 35.4141 34.2285 35.4922 33.291C35.5234 32.8692 35.4922 32.4942 35.3984 32.166C35.3203 31.8223 35.1953 31.5176 35.0234 31.252C34.8672 30.9707 34.6797 30.7285 34.4609 30.5254C34.2578 30.3067 34.0391 30.1192 33.8047 29.9629C33.0859 30.3535 32.2969 30.6817 31.4375 30.9473C31.1562 31.0254 30.9141 31.041 30.7109 30.9942C30.5078 30.9317 30.3359 30.8457 30.1953 30.7364C30.0547 30.6114 29.9453 30.4707 29.8672 30.3145C29.7891 30.1582 29.7422 30.0098 29.7266 29.8692Z" fill="white"/>
</svg>
